HIERARCHY
ROOT hip
{
  OFFSET 0 0 0
  CHANNELS 6 Xposition Yposition Zposition Zrotation Yrotation Xrotation
  JOINT abdomen
  {
    OFFSET 0 20.6881 -0.73152
    CHANNELS 3 Zrotation Xrotation Yrotation
    JOINT chest
    {
      OFFSET 0 11.7043 -0.48768
      CHANNELS 3 Zrotation Xrotation Yrotation
      JOINT neck
      {
        OFFSET 0 22.1894 -2.19456
        CHANNELS 3 Zrotation Xrotation Yrotation
        JOINT head
        {
          OFFSET -0.24384 7.07133 1.2192
          CHANNELS 3 Zrotation Xrotation Yrotation
          JOINT leftEye
          {
            OFFSET 4.14528 8.04674 8.04672
            CHANNELS 3 Zrotation Xrotation Yrotation
            End Site
            {
              OFFSET 1 0 0
            }
          }
          JOINT rightEye
          {
            OFFSET -3.6576 8.04674 8.04672
            CHANNELS 3 Zrotation Xrotation Yrotation
            End Site
            {
              OFFSET 1 0 0
            }
          }
        }
      }
      JOINT rCollar
      {
        OFFSET -2.68224 19.2634 -4.8768
        CHANNELS 3 Zrotation Xrotation Yrotation
        JOINT rShldr
        {
          OFFSET -8.77824 -1.95073 1.46304
          CHANNELS 3 Zrotation Xrotation Yrotation
          JOINT rForeArm
          {
            OFFSET -28.1742 -1.7115 0.48768
            CHANNELS 3 Zrotation Xrotation Yrotation
            JOINT rHand
            {
              OFFSET -22.5879 0.773209 7.07136
              CHANNELS 3 Zrotation Xrotation Yrotation
              JOINT rThumb1
              {
                OFFSET -1.2192 -0.487915 3.41376
                CHANNELS 3 Zrotation Xrotation Yrotation
                JOINT rThumb2
                {
                  OFFSET -3.37035 -0.52449 3.41376
                  CHANNELS 3 Zrotation Xrotation Yrotation
                  End Site
                  {
                    OFFSET -1.78271 -1.18214 1.43049
                  }
                }
              }
              JOINT rIndex1
              {
                OFFSET -7.75947 0.938293 5.60832
                CHANNELS 3 Zrotation Xrotation Yrotation
                JOINT rIndex2
                {
                  OFFSET -2.54057 -0.884171 1.56538
                  CHANNELS 3 Zrotation Xrotation Yrotation
                  End Site
                  {
                    OFFSET -1.62519 -0.234802 1.16502
                  }
                }
              }
              JOINT rMid1
              {
                OFFSET -8.24714 1.18213 3.41376
                CHANNELS 3 Zrotation Xrotation Yrotation
                JOINT rMid2
                {
                  OFFSET -3.10165 -0.590103 1.0647
                  CHANNELS 3 Zrotation Xrotation Yrotation
                  End Site
                  {
                    OFFSET -2.48547 -0.328903 0.83742
                  }
                }
              }
              JOINT rRing1
              {
                OFFSET -8.82822 0.546677 1.51678
                CHANNELS 3 Zrotation Xrotation Yrotation
                JOINT rRing2
                {
                  OFFSET -2.60934 -0.819778 -0.0198488
                  CHANNELS 3 Zrotation Xrotation Yrotation
                  End Site
                  {
                    OFFSET -2.33842 -0.294052 0.168128
                  }
                }
              }
              JOINT rPinky1
              {
                OFFSET -8.27202 -0.0477905 -0.4584
                CHANNELS 3 Zrotation Xrotation Yrotation
                JOINT rPinky2
                {
                  OFFSET -1.82734 -0.647385 -0.700984
                  CHANNELS 3 Zrotation Xrotation Yrotation
                  End Site
                  {
                    OFFSET -1.69225 -0.51767 -0.607171
                  }
                }
              }
            }
          }
        }
      }
      JOINT lCollar
      {
        OFFSET 2.68224 19.2634 -4.8768
        CHANNELS 3 Zrotation Xrotation Yrotation
        JOINT lShldr
        {
          OFFSET 8.77824 -1.95073 1.46304
          CHANNELS 3 Zrotation Xrotation Yrotation
          JOINT lForeArm
          {
            OFFSET 28.1742 -1.7115 0.48768
            CHANNELS 3 Zrotation Xrotation Yrotation
            JOINT lHand
            {
              OFFSET 22.5879 0.773209 7.07136
              CHANNELS 3 Zrotation Xrotation Yrotation
              JOINT lThumb1
              {
                OFFSET 1.2192 -0.487915 3.41376
                CHANNELS 3 Zrotation Xrotation Yrotation
                JOINT lThumb2
                {
                  OFFSET 3.37035 -0.52449 3.41376
                  CHANNELS 3 Zrotation Xrotation Yrotation
                  End Site
                  {
                    OFFSET 1.78271 -1.18214 1.43049
                  }
                }
              }
              JOINT lIndex1
              {
                OFFSET 7.75947 0.938293 5.60832
                CHANNELS 3 Zrotation Xrotation Yrotation
                JOINT lIndex2
                {
                  OFFSET 2.54057 -0.884171 1.56538
                  CHANNELS 3 Zrotation Xrotation Yrotation
                  End Site
                  {
                    OFFSET 1.62519 -0.234802 1.16502
                  }
                }
              }
              JOINT lMid1
              {
                OFFSET 8.24714 1.18213 3.41376
                CHANNELS 3 Zrotation Xrotation Yrotation
                JOINT lMid2
                {
                  OFFSET 3.10165 -0.590103 1.0647
                  CHANNELS 3 Zrotation Xrotation Yrotation
                  End Site
                  {
                    OFFSET 2.48547 -0.328903 0.83742
                  }
                }
              }
              JOINT lRing1
              {
                OFFSET 8.82822 0.546677 1.51678
                CHANNELS 3 Zrotation Xrotation Yrotation
                JOINT lRing2
                {
                  OFFSET 2.60934 -0.819778 -0.0198488
                  CHANNELS 3 Zrotation Xrotation Yrotation
                  End Site
                  {
                    OFFSET 2.33842 -0.294052 0.168128
                  }
                }
              }
              JOINT lPinky1
              {
                OFFSET 8.27202 -0.0477905 -0.4584
                CHANNELS 3 Zrotation Xrotation Yrotation
                JOINT lPinky2
                {
                  OFFSET 1.82734 -0.647385 -0.700984
                  CHANNELS 3 Zrotation Xrotation Yrotation
                  End Site
                  {
                    OFFSET 1.69225 -0.51767 -0.607171
                  }
                }
              }
            }
          }
        }
      }
    }
  }
  JOINT rButtock
  {
    OFFSET -8.77824 4.35084 1.2192
    CHANNELS 3 Zrotation Xrotation Yrotation
    JOINT rThigh
    {
      OFFSET 0 -1.70687 -2.19456
      CHANNELS 3 Zrotation Xrotation Yrotation
      JOINT rShin
      {
        OFFSET 0 -36.8199 0.73152
        CHANNELS 3 Zrotation Xrotation Yrotation
        JOINT rFoot
        {
          OFFSET 0.73152 -45.1104 -5.12064
          CHANNELS 3 Zrotation Xrotation Yrotation
          End Site
          {
            OFFSET -1.1221 -3.69964 12.103
          }
        }
      }
    }
  }
  JOINT lButtock
  {
    OFFSET 8.77824 4.35084 1.2192
    CHANNELS 3 Zrotation Xrotation Yrotation
    JOINT lThigh
    {
      OFFSET 0 -1.70687 -2.19456
      CHANNELS 3 Zrotation Xrotation Yrotation
      JOINT lShin
      {
        OFFSET 0 -36.8199 0.73152
        CHANNELS 3 Zrotation Xrotation Yrotation
        JOINT lFoot
        {
          OFFSET -0.73152 -45.1104 -5.12064
          CHANNELS 3 Zrotation Xrotation Yrotation
          End Site
          {
            OFFSET 1.1221 -3.69964 12.103
          }
        }
      }
    }
  }
}
MOTION
Frames:	4
Frame Time:	0.03333
-0.025699999183416367 62.991798400878906 0.6305000185966492 -6.291199699044228 -39.79079872369766 5.818200185894966 2.149749957025051 13.674999922513962 3.908190093934536 -0.07982660026755184 -6.288929879665375 0.9527359809726477 0.5717490194365382 13.418100625276566 6.865820065140724 -0.6863749818876386 -27.35030025243759 13.470300436019897 0.0 0.0 0.0 0.0 0.0 0.0 0.0 0.0 0.0 65.75229942798615 44.554200768470764 -18.020300567150116 -28.136799037456512 -39.620100259780884 83.24339747428894 -0.03805610089330003 5.561189912259579 0.7840589806437492 7.904077392595354e-10 -3.028617356903851e-09 -3.772981926886132e-10 1.3633894013764802e-09 -5.2310156206658576e-09 -6.548361852765083e-10 7.904077392595354e-10 -3.028617356903851e-09 -3.772981926886132e-10 7.7309102565050125 5.474880114197731 0.41731400415301323 7.904077392595354e-10 -3.028617356903851e-09 -3.772981926886132e-10 2.905540131032467 0.9651830233633518 0.102901995414868 7.904077392595354e-10 -3.028617356903851e-09 -3.772981926886132e-10 10.27859978377819 0.7318009994924068 0.025912300043273717 7.904077392595354e-10 -3.028617356903851e-09 -3.772981926886132e-10 2.221670038998127 -0.733487019315362 -0.2089200052432716 0.0 0.0 0.0 -60.208699107170105 31.66850119829178 -15.300799459218979 28.021000027656555 -40.30439883470535 -84.46730017662048 0.9024930093437433 -25.93110054731369 3.9184800535440445 6.906475391588174e-10 3.744844434550032e-09 2.32645902542572e-09 1.1472423011582578e-09 6.558593668160029e-09 4.032614242532873e-09 6.906475391588174e-10 3.744844434550032e-09 2.32645902542572e-09 -7.7309102565050125 5.474880114197731 -0.41731400415301323 6.906475391588174e-10 3.744844434550032e-09 2.32645902542572e-09 -2.905540131032467 0.9651830233633518 -0.102901995414868 6.906475391588174e-10 3.744844434550032e-09 2.32645902542572e-09 -10.27859978377819 0.7318009994924068 -0.025912300043273717 6.906475391588174e-10 3.744844434550032e-09 2.32645902542572e-09 -2.221670038998127 -0.733487019315362 0.2089200052432716 0.0 0.0 0.0 -9.47967030107975 -16.677200496196747 -6.286000236868858 -0.6309639802202582 56.29750192165375 2.257130015641451 -12.089500576257706 -17.60610044002533 -32.665700912475586 0.0 0.0 0.0 44.6916988492012 -47.47040033340454 38.45280021429062 0.7237660232931376 50.62420070171356 -0.4123729979619384 -1.373369973152876 16.759300231933594 4.471940137445927
-0.05790000036358833 62.845401763916016 1.2010999917984009 -6.34319968521595 -37.86450058221817 5.636100322008133 2.2615300118923187 13.329500555992126 4.01324987411499 0.1328840001951903 -6.097479835152626 0.9923350252211094 0.4322549980133772 13.351500034332275 6.3879503309726715 -0.31072400277480483 -27.52099871635437 12.623100578784943 0.0 0.0 0.0 0.0 0.0 0.0 0.0 0.0 0.0 66.35619878768921 43.59660118818283 -18.44750002026558 -28.126198947429657 -39.68739956617355 83.3635014295578 -0.04042430024128407 5.729010030627251 0.8078800141811371 1.6549961401324254e-09 -5.60191892873263e-09 -1.4912870938132983e-09 2.857234449038515e-09 -9.67162350207218e-09 -2.588649294921197e-09 1.6549961401324254e-09 -5.60191892873263e-09 -1.4912870938132983e-09 7.7309102565050125 5.474880114197731 0.41731400415301323 1.6549961401324254e-09 -5.60191892873263e-09 -1.4912870938132983e-09 2.905540131032467 0.9651830233633518 0.102901995414868 1.6549961401324254e-09 -5.60191892873263e-09 -1.4912870938132983e-09 10.27859978377819 0.7318009994924068 0.025912300043273717 1.6549961401324254e-09 -5.60191892873263e-09 -1.4912870938132983e-09 2.221670038998127 -0.733487019315362 -0.2089200052432716 0.0 0.0 0.0 -59.699100852012634 32.11059898138046 -16.577699929475784 28.07269960641861 -40.01300096511841 -83.94499897956848 0.8810039889067411 -25.64660131931305 3.8690700754523277 5.039169082010631e-10 3.361151357239578e-09 1.977298325073207e-09 8.326139777636854e-10 5.867946129001211e-09 3.4212632726848824e-09 5.039169082010631e-10 3.361151357239578e-09 1.977298325073207e-09 -7.7309102565050125 5.474880114197731 -0.41731400415301323 5.039169082010631e-10 3.361151357239578e-09 1.977298325073207e-09 -2.905540131032467 0.9651830233633518 -0.102901995414868 5.039169082010631e-10 3.361151357239578e-09 1.977298325073207e-09 -10.27859978377819 0.7318009994924068 -0.025912300043273717 5.039169082010631e-10 3.361151357239578e-09 1.977298325073207e-09 -2.221670038998127 -0.733487019315362 0.2089200052432716 0.0 0.0 0.0 -9.344779998064041 -15.308300256729126 -6.20555005967617 -0.6090380111709237 55.86899757385254 2.2508600167930126 -12.381200194358826 -18.206400275230408 -32.678299248218536 0.0 0.0 0.0 44.475499391555786 -48.49439799785614 39.4294998049736 0.7649930007755756 51.28250062465668 -0.3758470108732581 -1.1494900099933147 16.011300534009933 4.204720035195351
-0.11549999937415123 62.6776008605957 1.7591999769210815 -6.436899974942207 -35.9170988202095 5.442900136113167 2.519050072878599 13.082300126552582 4.107960015535355 0.2566029969602823 -5.95397025346756 1.0239799786359072 0.2874579979106784 13.231799751520157 5.910429954528809 0.2452010102570057 -27.48670130968094 11.817399859428406 0.0 0.0 0.0 0.0 0.0 0.0 0.0 0.0 0.0 67.02440142631531 42.749401330947876 -18.759499937295914 -28.120300769805908 -39.7245991230011 83.42969834804535 -0.03906080033630133 5.631730332970619 0.7940720021724701 1.454196763006621e-09 -4.852438451052876e-09 -3.9533176732220454e-09 2.4940050025179517e-09 -8.321023869939381e-09 -6.8399685915210284e-09 1.454196763006621e-09 -4.852438451052876e-09 -3.9533176732220454e-09 7.7309102565050125 5.474880114197731 0.41731400415301323 1.454196763006621e-09 -4.852438451052876e-09 -3.9533176732220454e-09 2.905540131032467 0.9651830233633518 0.102901995414868 1.454196763006621e-09 -4.852438451052876e-09 -3.9533176732220454e-09 10.27859978377819 0.7318009994924068 0.025912300043273717 1.454196763006621e-09 -4.852438451052876e-09 -3.9533176732220454e-09 2.221670038998127 -0.733487019315362 -0.2089200052432716 0.0 0.0 0.0 -59.04599905014038 32.56089895963669 -18.029700368642807 28.12299907207489 -39.71049875020981 -83.4026026725769 0.8622990176081657 -25.395299792289734 3.8255998492240906 -1.64476432473748e-09 -6.394884621840902e-11 -1.3838530321663711e-09 -2.8175861643831013e-09 -2.3021584638627246e-10 -2.42494024860207e-09 -1.64476432473748e-09 -6.394884621840902e-11 -1.3838530321663711e-09 -7.7309102565050125 5.474880114197731 -0.41731400415301323 -1.64476432473748e-09 -6.394884621840902e-11 -1.3838530321663711e-09 -2.905540131032467 0.9651830233633518 -0.102901995414868 -1.64476432473748e-09 -6.394884621840902e-11 -1.3838530321663711e-09 -10.27859978377819 0.7318009994924068 -0.025912300043273717 -1.64476432473748e-09 -6.394884621840902e-11 -1.3838530321663711e-09 -2.221670038998127 -0.733487019315362 0.2089200052432716 0.0 0.0 0.0 -8.870379701256752 -13.589900135993958 -5.291770063340664 -0.5814139824360609 55.215198397636414 2.222549971193075 -12.46629998087883 -18.868200480937958 -32.240501046180725 0.0 0.0 0.0 44.11770075559616 -49.55139756202698 39.182100892066956 0.7973439618945122 51.89400136470795 -0.3807469876483083 -0.9463110007345676 15.254599750041962 3.580300100147724
-0.12819999922066927 62.43280029296875 2.355299949645996 -6.869099736213684 -34.08920019865036 5.3398000448942184 2.901040054857731 12.856100052595139 4.248819909989834 0.31049100682139397 -5.861379727721214 1.068549994379282 0.13492699479684234 13.126300424337387 5.442720092833042 0.8258389960974455 -27.328400015830994 11.032899990677834 0.0 0.0 0.0 0.0 0.0 0.0 0.0 0.0 1.2789769243681803e-12 67.67320096492767 42.09330081939697 -18.986799716949463 -28.11629891395569 -39.7503000497818 83.47530126571655 -0.036273600126150995 5.428089983761311 0.7651820126920938 1.0027179087046534e-09 -3.417426341911778e-09 -5.6274984672199935e-09 1.7035972632584162e-09 -5.79888137508533e-09 -9.729177463668748e-09 1.0027179087046534e-09 -3.417426341911778e-09 -5.6274984672199935e-09 7.7309102565050125 5.474880114197731 0.41731400415301323 1.0027179087046534e-09 -3.417426341911778e-09 -5.6274984672199935e-09 2.905540131032467 0.9651830233633518 0.102901995414868 1.0027179087046534e-09 -3.417426341911778e-09 -5.6274984672199935e-09 10.27859978377819 0.7318009994924068 0.025912300043273717 1.0027179087046534e-09 -3.417426341911778e-09 -5.6274984672199935e-09 2.221670038998127 -0.733487019315362 -0.2089200052432716 0.0 0.0 1.2789769243681803e-12 -58.346301913261414 32.98900097608566 -19.521400183439255 28.167499601840973 -39.414600133895874 -82.8792017698288 0.8432929683476686 -25.137099623680115 3.7811201065778732 -3.4442848573235096e-09 -3.03629121845006e-09 -4.2167869196418906e-09 -5.873062036698684e-09 -5.512390544026857e-09 -7.3515593612683006e-09 -3.4442848573235096e-09 -3.03629121845006e-09 -4.2167869196418906e-09 -7.7309102565050125 5.474880114197731 -0.41731400415301323 -3.4442848573235096e-09 -3.03629121845006e-09 -4.2167869196418906e-09 -2.905540131032467 0.9651830233633518 -0.102901995414868 -3.4442848573235096e-09 -3.03629121845006e-09 -4.2167869196418906e-09 -10.27859978377819 0.7318009994924068 -0.025912300043273717 -3.4442848573235096e-09 -3.03629121845006e-09 -4.2167869196418906e-09 -2.221670038998127 -0.733487019315362 0.2089200052432716 0.0 0.0 0.0 -8.343650177121162 -11.808500289916992 -4.3190498650074005 -0.5514579825103283 54.467602372169495 2.1940300427377224 -12.48069941997528 -19.43409964442253 -31.796201169490814 0.0 0.0 0.0 43.77409905195236 -50.53830027580261 38.525201082229614 0.8266230393201113 52.50040054321289 -0.4069139901548624 -0.7603210117667913 14.347999691963196 2.8448400646448135
